# xmcd
#
# Track frame offsets: 
#        150
#        15148
#        39080
#        57190
#        67065
#        80811
#        100086
#        114005
#        125818
#        137641
#        173620
#        184745
#        243655
#
# Disc length: 3764 seconds
#
# Revision: 2
# Processed by: cddbd v1.5.2PL0 Copyright (c) Steve Scherf et al.
# Submitted via: ExactAudioCopyFreeDBPlugin 1.0
#
DISCID=a30eb20d
DTITLE=Die drei Fragezeichen - 121 - Spur ins Nichts
DYEAR=2008
DGENRE=Vocal
TTITLE0=Fehlende Erinnerung
TTITLE1=Filmriss
TTITLE2=Eins, Punkt, Fragezeichen
TTITLE3=Hasta la vista!
TTITLE4=Verdächtiges Individuum
TTITLE5=Fliegende Orangen
TTITLE6=Absolute Dunkelheit
TTITLE7=Gequirlter Blödsinn
TTITLE8=Hilfeschrei
TTITLE9=Amnesie
TTITLE10=Überzeugende Schauspielkunst
TTITLE11=Notbremse
TTITLE12=In Deckung!
EXTD=YEAR: 2008
EXTT0=
EXTT1=
EXTT2=
EXTT3=
EXTT4=
EXTT5=
EXTT6=
EXTT7=
EXTT8=
EXTT9=
EXTT10=
EXTT11=
EXTT12=
PLAYORDER=
